<?xml version="1.0" encoding="UTF-8" standalone="no"?>
<svg xmlns:svg="http://www.w3.org/2000/svg" xmlns="http://www.w3.org/2000/svg" xmlns:xlink="http://www.w3.org/1999/xlink" version="1.1" width="569.90503" height="213.69838" id="svg9893">
  <defs id="defs9895">
    <linearGradient x1="0" y1="0" x2="1" y2="0" id="linearGradient9529" xlink:href="#linearGradient882" gradientUnits="userSpaceOnUse" gradientTransform="matrix(0,150.58148,-150.58148,0,364.22921,465.4446)" spreadMethod="pad"/>
    <linearGradient x1="0" y1="0" x2="1" y2="0" id="linearGradient882" gradientUnits="userSpaceOnUse" gradientTransform="matrix(0,-32.954834,-32.954834,0,321.57677,727.51358)" spreadMethod="pad">
      <stop id="stop884" style="stop-color:#ffffff;stop-opacity:1" offset="0"/>
      <stop id="stop886" style="stop-color:#eceded;stop-opacity:1" offset="0.69101"/>
      <stop id="stop888" style="stop-color:#e6e7e8;stop-opacity:1" offset="0.80000299"/>
      <stop id="stop890" style="stop-color:#d1d3d4;stop-opacity:1" offset="1"/>
    </linearGradient>
    <linearGradient x1="0" y1="0" x2="1" y2="0" id="linearGradient9524" xlink:href="#linearGradient852" gradientUnits="userSpaceOnUse" gradientTransform="matrix(0,108.62364,-108.62364,0,450.37173,507.00769)" spreadMethod="pad"/>
    <linearGradient x1="0" y1="0" x2="1" y2="0" id="linearGradient852" gradientUnits="userSpaceOnUse" gradientTransform="matrix(0,-23.772339,-23.772339,0,340.42911,718.41748)" spreadMethod="pad">
      <stop id="stop854" style="stop-color:#ffffff;stop-opacity:1" offset="0"/>
      <stop id="stop856" style="stop-color:#eceded;stop-opacity:1" offset="0.69101"/>
      <stop id="stop858" style="stop-color:#e6e7e8;stop-opacity:1" offset="0.80000299"/>
      <stop id="stop860" style="stop-color:#d1d3d4;stop-opacity:1" offset="1"/>
    </linearGradient>
    <linearGradient x1="0" y1="0" x2="1" y2="0" id="linearGradient9519" xlink:href="#linearGradient822" gradientUnits="userSpaceOnUse" gradientTransform="matrix(0,218.29186,-218.29186,0,405.68786,437.23992)" spreadMethod="pad"/>
    <linearGradient x1="0" y1="0" x2="1" y2="0" id="linearGradient822" gradientUnits="userSpaceOnUse" gradientTransform="matrix(0,-47.773285,-47.773285,0,330.65002,733.68619)" spreadMethod="pad">
      <stop id="stop824" style="stop-color:#ffffff;stop-opacity:1" offset="0"/>
      <stop id="stop826" style="stop-color:#f7f7f8;stop-opacity:1" offset="0.69101"/>
      <stop id="stop828" style="stop-color:#d1d3d4;stop-opacity:1" offset="0.80000299"/>
      <stop id="stop830" style="stop-color:#bcbec0;stop-opacity:1" offset="1"/>
    </linearGradient>
    <linearGradient x1="0" y1="0" x2="1" y2="0" id="linearGradient9514" xlink:href="#linearGradient794" gradientUnits="userSpaceOnUse" gradientTransform="matrix(-65.585587,-244.7686,244.7686,-65.585587,516.39075,569.99673)" spreadMethod="pad"/>
    <linearGradient x1="0" y1="0" x2="1" y2="0" id="linearGradient794" gradientUnits="userSpaceOnUse" gradientTransform="matrix(-14.353439,53.567734,53.567734,14.353439,354.8774,704.63229)" spreadMethod="pad">
      <stop id="stop796" style="stop-color:#b2b4b6;stop-opacity:1" offset="0"/>
      <stop id="stop798" style="stop-color:#dcddde;stop-opacity:1" offset="0.35000601"/>
      <stop id="stop800" style="stop-color:#b2b4b6;stop-opacity:1" offset="1"/>
    </linearGradient>
    <linearGradient x1="0" y1="0" x2="1" y2="0" id="linearGradient9509" xlink:href="#linearGradient766" gradientUnits="userSpaceOnUse" gradientTransform="matrix(-65.892715,-245.91491,245.91491,-65.892715,343.10176,704.63947)" spreadMethod="pad"/>
    <linearGradient x1="0" y1="0" x2="1" y2="0" id="linearGradient766" gradientUnits="userSpaceOnUse" gradientTransform="matrix(-14.420654,53.818603,53.818603,14.420654,316.95302,675.16566)" spreadMethod="pad">
      <stop id="stop768" style="stop-color:#b2b4b6;stop-opacity:1" offset="0"/>
      <stop id="stop770" style="stop-color:#dcddde;stop-opacity:1" offset="0.35000601"/>
      <stop id="stop772" style="stop-color:#b2b4b6;stop-opacity:1" offset="1"/>
    </linearGradient>
    <linearGradient x1="0" y1="0" x2="1" y2="0" id="linearGradient9504" xlink:href="#linearGradient726" gradientUnits="userSpaceOnUse" gradientTransform="matrix(0,-152.29163,152.29163,0,302.21303,619.08244)" spreadMethod="pad"/>
    <linearGradient x1="0" y1="0" x2="1" y2="0" id="linearGradient726" gradientUnits="userSpaceOnUse" gradientTransform="matrix(0,33.329102,33.329102,0,308.0045,693.88986)" spreadMethod="pad">
      <stop id="stop728" style="stop-color:#00053e;stop-opacity:1" offset="0"/>
      <stop id="stop730" style="stop-color:#003475;stop-opacity:1" offset="0.80899"/>
      <stop id="stop732" style="stop-color:#006ca9;stop-opacity:1" offset="1"/>
    </linearGradient>
    <linearGradient x1="0" y1="0" x2="1" y2="0" id="linearGradient9499" xlink:href="#linearGradient698" gradientUnits="userSpaceOnUse" gradientTransform="matrix(0,-152.22421,152.22421,0,385.65998,619.03218)" spreadMethod="pad"/>
    <linearGradient x1="0" y1="0" x2="1" y2="0" id="linearGradient698" gradientUnits="userSpaceOnUse" gradientTransform="matrix(0,33.314346,33.314346,0,326.26691,693.90086)" spreadMethod="pad">
      <stop id="stop700" style="stop-color:#00053e;stop-opacity:1" offset="0"/>
      <stop id="stop702" style="stop-color:#003475;stop-opacity:1" offset="0.80899"/>
      <stop id="stop704" style="stop-color:#006ca9;stop-opacity:1" offset="1"/>
    </linearGradient>
    <linearGradient x1="0" y1="0" x2="1" y2="0" id="linearGradient9494" xlink:href="#linearGradient670" gradientUnits="userSpaceOnUse" gradientTransform="matrix(0,-152.60434,152.60434,0,380.77208,619.28729)" spreadMethod="pad"/>
    <linearGradient x1="0" y1="0" x2="1" y2="0" id="linearGradient670" gradientUnits="userSpaceOnUse" gradientTransform="matrix(0,33.397537,33.397537,0,325.19719,693.84503)" spreadMethod="pad">
      <stop id="stop672" style="stop-color:#00053e;stop-opacity:1" offset="0"/>
      <stop id="stop674" style="stop-color:#003475;stop-opacity:1" offset="0.80899"/>
      <stop id="stop676" style="stop-color:#006ca9;stop-opacity:1" offset="1"/>
    </linearGradient>
    <linearGradient x1="0" y1="0" x2="1" y2="0" id="linearGradient9489" xlink:href="#linearGradient642" gradientUnits="userSpaceOnUse" gradientTransform="matrix(0,-152.21584,152.21584,0,420.27521,619.02834)" spreadMethod="pad"/>
    <linearGradient x1="0" y1="0" x2="1" y2="0" id="linearGradient642" gradientUnits="userSpaceOnUse" gradientTransform="matrix(0,33.312515,33.312515,0,333.84247,693.9017)" spreadMethod="pad">
      <stop id="stop644" style="stop-color:#00053e;stop-opacity:1" offset="0"/>
      <stop id="stop646" style="stop-color:#003475;stop-opacity:1" offset="0.80899"/>
      <stop id="stop648" style="stop-color:#006ca9;stop-opacity:1" offset="1"/>
    </linearGradient>
    <linearGradient x1="0" y1="0" x2="1" y2="0" id="linearGradient9484" xlink:href="#linearGradient614" gradientUnits="userSpaceOnUse" gradientTransform="matrix(0,-150.02224,150.02224,0,488.51068,617.09599)" spreadMethod="pad"/>
    <linearGradient x1="0" y1="0" x2="1" y2="0" id="linearGradient614" gradientUnits="userSpaceOnUse" gradientTransform="matrix(0,32.832443,32.832443,0,348.77583,694.3246)" spreadMethod="pad">
      <stop id="stop616" style="stop-color:#00053e;stop-opacity:1" offset="0"/>
      <stop id="stop618" style="stop-color:#003475;stop-opacity:1" offset="0.80899"/>
      <stop id="stop620" style="stop-color:#006ca9;stop-opacity:1" offset="1"/>
    </linearGradient>
    <linearGradient x1="0" y1="0" x2="1" y2="0" id="linearGradient9479" xlink:href="#linearGradient586" gradientUnits="userSpaceOnUse" gradientTransform="matrix(0,-152.88762,152.88762,0,316.69506,619.38394)" spreadMethod="pad"/>
    <linearGradient x1="0" y1="0" x2="1" y2="0" id="linearGradient586" gradientUnits="userSpaceOnUse" gradientTransform="matrix(0,33.459534,33.459534,0,311.1739,693.82388)" spreadMethod="pad">
      <stop id="stop588" style="stop-color:#00053e;stop-opacity:1" offset="0"/>
      <stop id="stop590" style="stop-color:#003475;stop-opacity:1" offset="0.80899"/>
      <stop id="stop592" style="stop-color:#006ca9;stop-opacity:1" offset="1"/>
    </linearGradient>
    <linearGradient x1="0" y1="0" x2="1" y2="0" id="linearGradient9474" xlink:href="#linearGradient558" gradientUnits="userSpaceOnUse" gradientTransform="matrix(0,-152.30816,152.30816,0,313.071,619.0438)" spreadMethod="pad"/>
    <linearGradient x1="0" y1="0" x2="1" y2="0" id="linearGradient558" gradientUnits="userSpaceOnUse" gradientTransform="matrix(0,33.332718,33.332718,0,310.38077,693.89832)" spreadMethod="pad">
      <stop id="stop560" style="stop-color:#00053e;stop-opacity:1" offset="0"/>
      <stop id="stop562" style="stop-color:#003475;stop-opacity:1" offset="0.80899"/>
      <stop id="stop564" style="stop-color:#006ca9;stop-opacity:1" offset="1"/>
    </linearGradient>
    <linearGradient x1="0" y1="0" x2="1" y2="0" id="linearGradient9469" xlink:href="#linearGradient530" gradientUnits="userSpaceOnUse" gradientTransform="matrix(0,-153.65645,153.65645,0,332.93365,619.9868)" spreadMethod="pad"/>
    <linearGradient x1="0" y1="0" x2="1" y2="0" id="linearGradient530" gradientUnits="userSpaceOnUse" gradientTransform="matrix(0,33.627792,33.627792,0,314.72772,693.69194)" spreadMethod="pad">
      <stop id="stop532" style="stop-color:#00053e;stop-opacity:1" offset="0"/>
      <stop id="stop534" style="stop-color:#003475;stop-opacity:1" offset="0.80899"/>
      <stop id="stop536" style="stop-color:#006ca9;stop-opacity:1" offset="1"/>
    </linearGradient>
    <linearGradient x1="0" y1="0" x2="1" y2="0" id="linearGradient9464" xlink:href="#linearGradient502" gradientUnits="userSpaceOnUse" gradientTransform="matrix(0,-152.21438,152.21438,0,264.78138,619.0245)" spreadMethod="pad"/>
    <linearGradient x1="0" y1="0" x2="1" y2="0" id="linearGradient502" gradientUnits="userSpaceOnUse" gradientTransform="matrix(0,33.312195,33.312195,0,299.81256,693.90254)" spreadMethod="pad">
      <stop id="stop504" style="stop-color:#00053e;stop-opacity:1" offset="0"/>
      <stop id="stop506" style="stop-color:#003475;stop-opacity:1" offset="0.80899"/>
      <stop id="stop508" style="stop-color:#006ca9;stop-opacity:1" offset="1"/>
    </linearGradient>
    <linearGradient x1="0" y1="0" x2="1" y2="0" id="linearGradient9459" xlink:href="#linearGradient474" gradientUnits="userSpaceOnUse" gradientTransform="matrix(0,-152.31618,152.31618,0,379.58851,619.0631)" spreadMethod="pad"/>
    <linearGradient x1="0" y1="0" x2="1" y2="0" id="linearGradient474" gradientUnits="userSpaceOnUse" gradientTransform="matrix(0,33.334473,33.334473,0,324.93816,693.89409)" spreadMethod="pad">
      <stop id="stop476" style="stop-color:#00053e;stop-opacity:1" offset="0"/>
      <stop id="stop478" style="stop-color:#003475;stop-opacity:1" offset="0.80899"/>
      <stop id="stop480" style="stop-color:#006ca9;stop-opacity:1" offset="1"/>
    </linearGradient>
    <linearGradient x1="0" y1="0" x2="1" y2="0" id="linearGradient9454" xlink:href="#linearGradient446" gradientUnits="userSpaceOnUse" gradientTransform="matrix(0,-152.35598,152.35598,0,403.39417,619.09399)" spreadMethod="pad"/>
    <linearGradient x1="0" y1="0" x2="1" y2="0" id="linearGradient446" gradientUnits="userSpaceOnUse" gradientTransform="matrix(0,33.343185,33.343185,0,330.14804,693.88733)" spreadMethod="pad">
      <stop id="stop448" style="stop-color:#00053e;stop-opacity:1" offset="0"/>
      <stop id="stop450" style="stop-color:#003475;stop-opacity:1" offset="0.80899"/>
      <stop id="stop452" style="stop-color:#006ca9;stop-opacity:1" offset="1"/>
    </linearGradient>
    <linearGradient x1="0" y1="0" x2="1" y2="0" id="linearGradient9449" xlink:href="#linearGradient418" gradientUnits="userSpaceOnUse" gradientTransform="matrix(0,-152.23746,152.23746,0,550.38276,619.03605)" spreadMethod="pad"/>
    <linearGradient x1="0" y1="0" x2="1" y2="0" id="linearGradient418" gradientUnits="userSpaceOnUse" gradientTransform="matrix(0,33.317245,33.317245,0,362.31657,693.90001)" spreadMethod="pad">
      <stop id="stop420" style="stop-color:#00053e;stop-opacity:1" offset="0"/>
      <stop id="stop422" style="stop-color:#003475;stop-opacity:1" offset="0.80899"/>
      <stop id="stop424" style="stop-color:#006ca9;stop-opacity:1" offset="1"/>
    </linearGradient>
    <linearGradient x1="0" y1="0" x2="1" y2="0" id="linearGradient9444" xlink:href="#linearGradient390" gradientUnits="userSpaceOnUse" gradientTransform="matrix(0,-153.27681,153.27681,0,467.36295,619.51145)" spreadMethod="pad"/>
    <linearGradient x1="0" y1="0" x2="1" y2="0" id="linearGradient390" gradientUnits="userSpaceOnUse" gradientTransform="matrix(0,33.544708,33.544708,0,344.14764,693.79597)" spreadMethod="pad">
      <stop id="stop392" style="stop-color:#00053e;stop-opacity:1" offset="0"/>
      <stop id="stop394" style="stop-color:#003475;stop-opacity:1" offset="0.80899"/>
      <stop id="stop396" style="stop-color:#006ca9;stop-opacity:1" offset="1"/>
    </linearGradient>
    <linearGradient x1="0" y1="0" x2="1" y2="0" id="linearGradient9439" xlink:href="#linearGradient362" gradientUnits="userSpaceOnUse" gradientTransform="matrix(0,-153.65533,153.65533,0,518.98196,619.42254)" spreadMethod="pad"/>
    <linearGradient x1="0" y1="0" x2="1" y2="0" id="linearGradient362" gradientUnits="userSpaceOnUse" gradientTransform="matrix(0,33.627548,33.627548,0,355.44449,693.81543)" spreadMethod="pad">
      <stop id="stop364" style="stop-color:#00053e;stop-opacity:1" offset="0"/>
      <stop id="stop366" style="stop-color:#003475;stop-opacity:1" offset="0.80899"/>
      <stop id="stop368" style="stop-color:#006ca9;stop-opacity:1" offset="1"/>
    </linearGradient>
    <linearGradient x1="0" y1="0" x2="1" y2="0" id="linearGradient9434" xlink:href="#linearGradient334" gradientUnits="userSpaceOnUse" gradientTransform="matrix(0,-152.38088,152.38088,0,438.50895,619.0438)" spreadMethod="pad"/>
    <linearGradient x1="0" y1="0" x2="1" y2="0" id="linearGradient334" gradientUnits="userSpaceOnUse" gradientTransform="matrix(0,33.348633,33.348633,0,337.83293,693.89832)" spreadMethod="pad">
      <stop id="stop336" style="stop-color:#00053e;stop-opacity:1" offset="0"/>
      <stop id="stop338" style="stop-color:#003475;stop-opacity:1" offset="0.80899"/>
      <stop id="stop340" style="stop-color:#006ca9;stop-opacity:1" offset="1"/>
    </linearGradient>
    <linearGradient x1="0" y1="0" x2="1" y2="0" id="linearGradient9429" xlink:href="#linearGradient306" gradientUnits="userSpaceOnUse" gradientTransform="matrix(0,-152.20071,152.20071,0,372.68999,619.0245)" spreadMethod="pad"/>
    <linearGradient x1="0" y1="0" x2="1" y2="0" id="linearGradient306" gradientUnits="userSpaceOnUse" gradientTransform="matrix(0,33.309204,33.309204,0,323.42842,693.90254)" spreadMethod="pad">
      <stop id="stop308" style="stop-color:#00053e;stop-opacity:1" offset="0"/>
      <stop id="stop310" style="stop-color:#003475;stop-opacity:1" offset="0.80899"/>
      <stop id="stop312" style="stop-color:#006ca9;stop-opacity:1" offset="1"/>
    </linearGradient>
    <linearGradient x1="0" y1="0" x2="1" y2="0" id="linearGradient9424" xlink:href="#linearGradient278" gradientUnits="userSpaceOnUse" gradientTransform="matrix(0,-152.56508,152.56508,0,504.43326,619.09794)" spreadMethod="pad"/>
    <linearGradient x1="0" y1="0" x2="1" y2="0" id="linearGradient278" gradientUnits="userSpaceOnUse" gradientTransform="matrix(0,33.388946,33.388946,0,352.2605,693.88647)" spreadMethod="pad">
      <stop id="stop280" style="stop-color:#00053e;stop-opacity:1" offset="0"/>
      <stop id="stop282" style="stop-color:#003475;stop-opacity:1" offset="0.80899"/>
      <stop id="stop284" style="stop-color:#006ca9;stop-opacity:1" offset="1"/>
    </linearGradient>
    <linearGradient x1="0" y1="0" x2="1" y2="0" id="linearGradient9678" xlink:href="#linearGradient250" gradientUnits="userSpaceOnUse" gradientTransform="matrix(0,-0.01882516,0.01882516,0,573.23295,515.39314)" spreadMethod="pad"/>
    <linearGradient x1="0" y1="0" x2="1" y2="0" id="linearGradient250" gradientUnits="userSpaceOnUse" gradientTransform="matrix(0,0.0041199,0.0041199,0,367.31734,716.58232)" spreadMethod="pad">
      <stop id="stop252" style="stop-color:#00053e;stop-opacity:1" offset="0"/>
      <stop id="stop254" style="stop-color:#003475;stop-opacity:1" offset="0.80899"/>
      <stop id="stop256" style="stop-color:#006ca9;stop-opacity:1" offset="1"/>
    </linearGradient>
    <linearGradient x1="0" y1="0" x2="1" y2="0" id="linearGradient9414" xlink:href="#linearGradient214" gradientUnits="userSpaceOnUse" gradientTransform="matrix(0,-152.23781,152.23781,0,444.01042,619.0438)" spreadMethod="pad"/>
    <linearGradient x1="0" y1="0" x2="1" y2="0" id="linearGradient214" gradientUnits="userSpaceOnUse" gradientTransform="matrix(0,33.317322,33.317322,0,339.03693,693.89832)" spreadMethod="pad">
      <stop id="stop216" style="stop-color:#00053e;stop-opacity:1" offset="0"/>
      <stop id="stop218" style="stop-color:#003475;stop-opacity:1" offset="0.80899"/>
      <stop id="stop220" style="stop-color:#006ca9;stop-opacity:1" offset="1"/>
    </linearGradient>
    <linearGradient x1="0" y1="0" x2="1" y2="0" id="linearGradient9409" xlink:href="#linearGradient186" gradientUnits="userSpaceOnUse" gradientTransform="matrix(0,-152.29017,152.29017,0,528.03899,619.06694)" spreadMethod="pad"/>
    <linearGradient x1="0" y1="0" x2="1" y2="0" id="linearGradient186" gradientUnits="userSpaceOnUse" gradientTransform="matrix(0,33.328781,33.328781,0,357.42662,693.89325)" spreadMethod="pad">
      <stop id="stop188" style="stop-color:#00053e;stop-opacity:1" offset="0"/>
      <stop id="stop190" style="stop-color:#003475;stop-opacity:1" offset="0.80899"/>
      <stop id="stop192" style="stop-color:#006ca9;stop-opacity:1" offset="1"/>
    </linearGradient>
    <linearGradient x1="0" y1="0" x2="1" y2="0" id="linearGradient9404" xlink:href="#linearGradient158" gradientUnits="userSpaceOnUse" gradientTransform="matrix(0,-152.54166,152.54166,0,518.70956,619.1327)" spreadMethod="pad"/>
    <linearGradient x1="0" y1="0" x2="1" y2="0" id="linearGradient158" gradientUnits="userSpaceOnUse" gradientTransform="matrix(0,33.38382,33.38382,0,355.38487,693.87886)" spreadMethod="pad">
      <stop id="stop160" style="stop-color:#00053e;stop-opacity:1" offset="0"/>
      <stop id="stop162" style="stop-color:#003475;stop-opacity:1" offset="0.80899"/>
      <stop id="stop164" style="stop-color:#006ca9;stop-opacity:1" offset="1"/>
    </linearGradient>
    <linearGradient x1="0" y1="0" x2="1" y2="0" id="linearGradient9399" xlink:href="#linearGradient130" gradientUnits="userSpaceOnUse" gradientTransform="matrix(0,-152.69888,152.69888,0,454.362,619.16747)" spreadMethod="pad"/>
    <linearGradient x1="0" y1="0" x2="1" y2="0" id="linearGradient130" gradientUnits="userSpaceOnUse" gradientTransform="matrix(0,33.418228,33.418228,0,341.30238,693.87125)" spreadMethod="pad">
      <stop id="stop132" style="stop-color:#00053e;stop-opacity:1" offset="0"/>
      <stop id="stop134" style="stop-color:#003475;stop-opacity:1" offset="0.80899"/>
      <stop id="stop136" style="stop-color:#006ca9;stop-opacity:1" offset="1"/>
    </linearGradient>
    <linearGradient x1="0" y1="0" x2="1" y2="0" id="linearGradient9394" xlink:href="#linearGradient102" gradientUnits="userSpaceOnUse" gradientTransform="matrix(0,-217.18265,217.18265,0,408.76031,655.85132)" spreadMethod="pad"/>
    <linearGradient x1="0" y1="0" x2="1" y2="0" id="linearGradient102" gradientUnits="userSpaceOnUse" gradientTransform="matrix(0,47.530533,47.530533,0,331.32243,685.84297)" spreadMethod="pad">
      <stop id="stop104" style="stop-color:#00053e;stop-opacity:1" offset="0"/>
      <stop id="stop106" style="stop-color:#003475;stop-opacity:1" offset="0.80899"/>
      <stop id="stop108" style="stop-color:#006ca9;stop-opacity:1" offset="1"/>
    </linearGradient>
    <linearGradient x1="0" y1="0" x2="1" y2="0" id="linearGradient9389" xlink:href="#linearGradient74" gradientUnits="userSpaceOnUse" gradientTransform="matrix(0,-217.17686,217.17686,0,405.24339,655.84748)" spreadMethod="pad"/>
    <linearGradient x1="0" y1="0" x2="1" y2="0" id="linearGradient74" gradientUnits="userSpaceOnUse" gradientTransform="matrix(0,47.529266,47.529266,0,330.55275,685.84381)" spreadMethod="pad">
      <stop id="stop76" style="stop-color:#00053e;stop-opacity:1" offset="0"/>
      <stop id="stop78" style="stop-color:#003475;stop-opacity:1" offset="0.80899"/>
      <stop id="stop80" style="stop-color:#006ca9;stop-opacity:1" offset="1"/>
    </linearGradient>
    <radialGradient cx="0" cy="0" r="1" fx="0" fy="0" id="radialGradient9384" xlink:href="#radialGradient42" gradientUnits="userSpaceOnUse" gradientTransform="matrix(1230.3213,0,0,1199.6896,403.63477,1618.3507)" spreadMethod="pad"/>
    <radialGradient cx="0" cy="0" r="1" fx="0" fy="0" id="radialGradient42" gradientUnits="userSpaceOnUse" gradientTransform="matrix(269.25644,0,0,-262.55269,330.2007,475.19949)" spreadMethod="pad">
      <stop id="stop44" style="stop-color:#000000;stop-opacity:1" offset="0"/>
      <stop id="stop46" style="stop-color:#000033;stop-opacity:1" offset="0.69999701"/>
      <stop id="stop48" style="stop-color:#004282;stop-opacity:1" offset="0.904495"/>
      <stop id="stop50" style="stop-color:#1aa6df;stop-opacity:1" offset="0.95500201"/>
      <stop id="stop52" style="stop-color:#1aa6df;stop-opacity:1" offset="1"/>
    </radialGradient>
  </defs>
  <g transform="translate(-120.76179,-439.79871)" id="layer1">
    <path d="m 688.92131,538.39569 c 0.10527,0.51634 0.18716,1.03724 0.27416,1.55357 -0.0779,-0.5209 -0.17803,-1.03723 -0.27416,-1.55357 M 405.71429,439.79871 c -158.16733,0 -284.9525,47.41136 -284.9525,106.84919 0,59.07686 127.83155,106.84919 284.9525,106.84919 157.12095,0 284.9525,-47.93226 284.9525,-106.84919 0,-58.91693 -127.83155,-106.84919 -284.9525,-106.84919" id="path22" style="fill:#d1d3d4;fill-opacity:1;fill-rule:nonzero;stroke:none"/>
    <path d="m 125.14012,546.58941 c 0,56.67339 125.56059,102.5129 280.57508,102.5129 l 0,0 c 155.03277,0 280.57509,-45.83951 280.57509,-102.5129 l 0,0 c 0,-56.7008 -125.54232,-102.52203 -280.57509,-102.52203 l 0,0 c -155.01449,0 -280.57508,45.82123 -280.57508,102.52203" id="path54" style="fill:url(#radialGradient9384);stroke:none"/>
    <path d="m 146.25956,546.6214 c 0,3.83823 0.77679,7.62621 2.26182,11.34107 l 0,0 c -0.63514,-2.44459 -0.9687,-4.9166 -0.9687,-7.42059 l 0,0 c 0,-46.93158 116.15691,-84.97124 259.4328,-84.97124 l 0,0 c 131.81143,0 240.63914,32.19092 257.23952,73.87234 l 0,0 C 653.15808,495.59113 541.65274,461.13839 405.69693,461.13839 l 0,0 c -143.28959,0 -259.43737,38.26356 -259.43737,85.48301" id="path82" style="fill:url(#linearGradient9389);stroke:none"/>
    <path d="m 674.56996,546.6214 c 0,51.68368 -120.37898,93.57986 -268.87303,93.57986 l 0,0 c -132.15414,0 -242.02823,-33.19161 -264.62813,-76.89724 l 0,0 c 17.18982,45.53336 129.97,80.6715 266.55638,80.6715 l 0,0 c 148.47578,0 268.82734,-41.53063 268.82734,-92.78936 l 0,0 c 0,-5.1999 -1.23829,-10.30841 -3.62348,-15.26613 l 0,0 c 1.15147,3.51381 1.74092,7.07789 1.74092,10.70137" id="path110" style="fill:url(#linearGradient9394);stroke:none"/>
    <path d="m 455.79048,555.67324 c -6.02694,6.27369 -6.47474,14.38882 -2.53141,18.03971 l 0,0 c 1.41193,1.30683 3.03404,1.90998 4.76124,2.00594 l 0,0 c -2.5771,-3.25794 -3.7834,-9.64586 -0.58944,-14.70411 l 0,0 c -0.59401,-1.49417 -0.70368,-3.18025 -0.36079,-4.85719 l 0,0 c 0.0822,-0.4021 -0.242,-0.78593 -0.65799,-0.78593 l 0,0 c -0.20105,0 -0.41581,0.0866 -0.62143,0.30158" id="path138" style="fill:url(#linearGradient9399);stroke:none"/>
    <path d="m 517.8968,569.00654 c 0,0.0329 0,0.064 0.004,0.0914 l 0,0 c 0,-0.0146 -0.004,-0.0293 -0.004,-0.0413 l 0,0 c 0,-0.0146 0,-0.0219 0,-0.0501 z m 0.53461,4.11697 c 0.3151,-0.60315 0.626,-1.23829 0.95499,-1.90998 l 0,0 c 0.24675,-0.51177 0.12319,-0.66713 -0.0914,-0.74937 l 0,0 c -0.62143,-0.22372 -1.25657,-0.69454 -1.34339,-1.18346 l 0,0 c -0.0219,-0.0592 -0.0409,-0.1188 -0.0501,-0.18277 l 0,0 c 0.0914,0.95499 0.33338,2.70504 0.53005,4.02558" id="path166" style="fill:url(#linearGradient9404);stroke:none"/>
    <path d="m 525.26713,548.52681 c 2.0105,1.91455 3.23965,4.25861 3.47726,6.4062 l 0,0 c 0.087,1.01439 0.85903,1.13776 1.4896,0.24674 l 0,0 c 0.1645,-0.24674 0.35202,-0.54832 0.58031,-0.89102 l 0,0 c -0.17839,-0.24199 -0.36116,-0.47064 -0.54832,-0.70824 l 0,0 c -0.88188,-1.04181 -2.97464,-3.28992 -4.99885,-5.05368 z" id="path194" style="fill:url(#linearGradient9409);stroke:none"/>
    <path d="m 441.86774,544.57434 c 1.6084,2.18871 2.37148,5.35068 2.25267,9.38083 l 0,0 c -0.0183,1.05095 0.74024,0.97784 1.23372,0.26502 l 0,0 c 0.27892,-0.38839 0.53918,-0.75394 0.79964,-1.10578 l 0,0 c -1.17432,-3.63718 -2.99291,-7.19669 -4.28603,-8.54007 z" id="path222" style="fill:url(#linearGradient9414);stroke:none"/>
    <path d="m 573.23138,515.3946 0,-0.0219 0,0.0219 z" id="path258" style="fill:url(#linearGradient9678);stroke:none"/>
    <path d="m 497.45819,565.65722 c -5.62027,6.89512 -8.64974,13.92275 -8.7594,20.7539 l 0,0 c -0.0457,2.43545 0.88188,5.44207 3.02946,6.55241 l 0,0 c 0.69911,0.37469 1.40736,0.61686 2.14759,0.7448 l 0,0 c -0.25588,-0.97326 -0.37469,-1.92825 -0.38382,-2.75073 l 0,0 c -0.0775,-7.05505 2.11559,-14.11009 7.73587,-21.01435 l 0,0 c 6.8083,-8.39385 13.96387,-12.57479 18.93987,-10.26728 l 0,0 c -0.2515,-1.84144 -1.21087,-3.44527 -3.3219,-4.43682 l 0,0 c -0.9093,-0.43408 -1.90998,-0.64884 -2.97464,-0.64884 l 0,0 c -4.74296,0 -10.82017,4.18093 -16.41303,11.06691" id="path286" style="fill:url(#linearGradient9424);stroke:none"/>
    <path d="m 385.50963,549.39498 c 0.21458,0.73566 0.0256,1.29769 -0.84989,1.62668 l 0,0 c -7.62621,2.89696 -15.27527,7.39318 -20.56655,14.4665 l 0,0 c -5.98583,8.04202 -7.60794,17.71529 -3.58693,23.28987 l 0,0 c 0.95042,1.30226 2.08362,2.26639 3.34475,2.89695 l 0,0 c -2.16129,-6.65751 -0.58944,-15.58598 4.49165,-22.45825 l 0,0 c 5.24102,-7.0916 11.13089,-9.77379 17.85237,-12.67989 l 0,0 c 0.88188,-0.38839 0.99611,-0.89102 0.83162,-1.67237 l 0,0 c -0.29719,-1.34339 -1.23829,-4.679 -1.51245,-5.46949 l 0,0 -0.004,0 z" id="path314" style="fill:url(#linearGradient9429);stroke:none"/>
    <path d="m 441.65755,572.42897 c -7.10531,10.85216 -13.73541,21.35704 -20.78131,32.3874 l 0,0 c -0.36555,0.5072 -0.68997,0.84076 -1.41649,0.87731 l 0,0 c -4.36371,0 -9.12495,-0.0146 -13.92732,0.007 l 0,0 c -0.51176,0 -0.84989,-0.22847 -0.9687,-0.57574 l 0,0 c 0.37926,1.68608 0.98698,4.72926 1.16061,5.44207 l 0,0 c 0.11405,0.47978 0.47978,0.73109 1.01439,0.73109 l 0,0 c 5.15878,0 11.4873,0 15.78704,-0.0219 l 0,0 c 0.63056,-0.0329 1.07379,-0.39753 1.41192,-0.87731 l 0,0 c 6.4062,-10.03425 13.25105,-20.92753 19.79433,-30.98005 l 0,0 c 1.44848,5.06281 2.175,7.4343 4.84806,9.81035 l 0,0 c 2.71875,2.44002 5.22274,3.07059 8.93304,3.10714 l 0,0 c 3.36302,0.0366 6.67579,-1.30683 10.60541,-2.94722 l 0,0 c 1.41192,-0.5803 2.67763,-1.31139 3.81082,-2.03792 l 0,0 c 0,-1.86428 0.18753,-3.73771 0.52091,-5.51975 l 0,0 c 0.0256,-0.19191 -0.16011,-1.42563 -1.22002,-0.68996 l 0,0 c -1.81859,1.30225 -4.1855,2.73702 -7.13272,3.82909 l 0,0 c -3.62348,1.35252 -5.32327,1.86429 -8.68172,1.82317 l 0,0 c -4.22206,-0.0219 -8.03288,-1.82298 -10.71508,-6.00392 l 0,0 c -1.49417,-2.26182 -2.1156,-5.70252 -2.26182,-8.22479 l 0,0 c -0.007,-0.17839 -0.16449,-0.44323 -0.37925,-0.44323 l 0,0 c -0.11881,0 -0.25589,0.0823 -0.4021,0.30633" id="path342" style="fill:url(#linearGradient9434);stroke:none"/>
    <path d="m 563.97392,578.01269 c -6.78089,8.28419 -14.2883,16.10688 -21.45757,21.64491 l 0,0 c -11.17201,8.64517 -22.3029,10.84302 -27.82265,5.30042 l 0,0 c -2.0562,-2.06077 -3.18025,-5.01255 -3.3219,-7.50284 l 0,0 c -0.064,-1.35252 -0.75394,-1.42106 -1.39821,-0.78592 l 0,0 c -6.58441,6.51129 -18.02144,13.73083 -28.43951,8.59491 l 0,0 c -5.28671,-2.61366 -8.09228,-7.47999 -9.13866,-12.85353 l 0,0 c 0.65799,3.88393 1.50331,9.44481 3.32191,12.88094 l 0,0 c 1.18802,2.28924 3.85194,4.84806 5.47862,5.65683 l 0,0 c 9.23918,4.56019 22.43541,-0.60772 30.90694,-8.76397 l 0,0 c 0.087,-0.10966 0.10528,-0.11405 0.22847,-0.2515 l 0,0 c 0.38382,1.47133 0.85446,3.24423 0.92757,3.48183 l 0,0 c 0.58031,1.89627 1.48047,3.61891 2.2801,4.52364 l 0,0 c 5.79391,6.55699 18.10825,3.57778 30.91608,-6.33766 l 0,0 c 7.16014,-5.52889 12.46513,-11.0989 18.96728,-18.66571 l 0,0 c 0.26027,-0.31071 0.23761,-0.77679 0.0958,-1.47589 l 0,0 c -0.37469,-1.64953 -0.96413,-4.6333 -1.28398,-6.13204 l 0,0 c 0,0.26977 -0.11405,0.50262 -0.26064,0.6854 m -91.62876,14.1375 c 0.004,0.0413 0.0183,0.087 0.0256,0.12794 l 0,0 c -0.007,-0.0409 -0.0183,-0.0866 -0.0256,-0.12794 z m 0.0505,0.26063 c -0.004,-0.0292 -0.007,-0.0457 -0.0146,-0.0731 l 0,0 c -0.004,-0.0183 -0.004,-0.0409 -0.011,-0.0596 l 0,0 c 0.004,0.0457 0.0146,0.087 0.0219,0.13269" id="path370" style="fill:url(#linearGradient9439);stroke:none"/>
    <path d="m 475.65335,555.19803 c -0.65341,4.1261 -2.88781,7.76329 -6.68949,9.65042 l 0,0 c -3.22138,1.57185 -6.98194,1.30226 -9.61387,-1.05551 l 0,0 c -0.82248,-0.74937 -1.42106,-1.6541 -1.83687,-2.60452 l 0,0 c 0.67626,3.11628 1.26113,5.40552 2.07447,6.6301 l 0,0 c 2.49486,3.74228 6.79003,4.68813 11.52842,2.12473 l 0,0 c 3.43614,-1.85971 6.45189,-5.79391 6.06807,-12.18183 l 0,0 c -0.19191,-3.18025 -1.11949,-6.45189 -2.59995,-9.1021 l 0,0 c 1.00525,1.94196 1.4302,4.1855 1.06922,6.53871" id="path398" style="fill:url(#linearGradient9444);stroke:none"/>
    <path d="m 573.24052,515.44943 c 0,-0.0183 -0.004,-0.0292 -0.007,-0.0413 l 0,0 c 0.004,0.0146 0.004,0.0219 0.007,0.0413 m -0.12319,0.55289 c -2.16587,3.74228 -43.90212,67.27881 -46.53862,73.85864 l 0,0 c -0.83619,2.07904 -0.93214,3.66917 -0.0823,4.8115 l 0,0 c 0.85904,1.15604 2.12017,1.60384 3.5458,1.57185 l 0,0 c 0.13708,-0.79049 0.44323,-1.70436 0.83162,-2.66392 l 0,0 c 2.6365,-6.59354 41.71797,-65.98568 43.86556,-69.74624 l 0,0 c 0.18716,-0.31985 0.1188,-0.68083 0.0592,-0.92757 l 0,0 c -0.12794,-0.58487 -1.38908,-6.68036 -1.55814,-7.45715 l 0,0 c 0.0292,0.15975 -0.0183,0.34252 -0.12319,0.55289" id="path426" style="fill:url(#linearGradient9449);stroke:none"/>
    <path d="m 399.8756,545.57045 c 0.1188,0.12319 0.22408,0.26027 0.32461,0.4021 l 0,0 c 2.5177,3.73771 3.88393,8.99701 4.02101,14.42994 l 0,0 c 0.15535,1.14691 0.64427,1.17432 1.20173,0.58488 l 0,0 c 0.5072,-0.52091 1.00068,-1.06009 1.4896,-1.5947 l 0,0 c -0.73109,-2.9198 -1.87342,-5.54259 -3.04774,-8.06943 l 0,0 c -0.42952,-0.92301 -2.34864,-4.19922 -3.98903,-5.75279 z" id="path454" style="fill:url(#linearGradient9454);stroke:none"/>
    <path d="m 421.15497,558.14068 c -9.00158,6.822 -16.56382,17.44569 -20.39749,22.19323 l 0,0 c -2.25725,2.801 -4.38655,6.92253 -10.29013,13.32416 l 0,0 c -9.2803,10.07537 -21.58551,15.86471 -33.44292,11.86655 l 0,0 c -6.47931,-2.175 -11.16287,-7.38861 -12.95861,-13.77196 l 0,0 c -0.35166,-1.23829 -1.04181,-1.58556 -1.71807,-0.77222 l 0,0 c -1.91455,2.38976 -5.83504,5.90815 -9.10667,8.12884 l 0,0 c -0.35641,0.25113 -1.23829,0.77679 -2.00137,0.4021 l 0,0 c -0.6854,-0.31071 -3.12085,-3.74228 -3.60063,-4.73382 l 0,0 c -0.0596,-0.10491 -0.0961,-0.22372 -0.10967,-0.32461 l 0,0 0,0.0366 c 0.84533,4.23576 0.95499,4.72011 2.11103,6.67579 l 0,0 c 1.31597,2.15672 2.58624,3.67831 2.86954,3.80168 l 0,0 c 0.77222,0.38839 1.54444,0.0329 1.9374,-0.16888 l 0,0 c 2.53598,-1.3114 7.4937,-5.12222 9.62757,-7.78157 l 0,0 c 0.65342,-0.61229 1.27028,-0.20105 1.47133,0.44779 l 0,0 c 0.90016,2.82842 2.20698,5.01256 3.6646,7.33378 l 0,0 c 1.60383,2.57253 4.80693,5.24559 8.95589,6.38792 l 0,0 c 5.3781,1.49874 11.18114,1.77747 18.79365,-1.14233 l 0,0 c 6.10919,-2.3395 12.50625,-7.10074 17.44113,-12.456 l 0,0 c 5.90814,-6.40619 8.04201,-10.52316 10.28555,-13.32416 l 0,0 c 3.8291,-4.74753 9.79665,-13.14139 18.15852,-20.27868 l 0,0 c 2.92894,-2.49942 6.13204,-4.12154 8.14254,-3.34475 l 0,0 c 1.20631,-3.10714 0.63514,-4.82521 -0.65341,-5.65683 l 0,0 c -0.43409,-0.2833 -0.95499,-0.40667 -1.549,-0.41124 l 0,0 c -2.10189,0 -5.05368,1.6084 -7.63078,3.56865" id="path482" style="fill:url(#linearGradient9459);stroke:none"/>
    <path d="m 271.33124,549.64172 c -5.05825,2.58624 -11.15374,7.00936 -14.16036,13.05001 l 0,0 c -2.44916,4.9303 -2.94264,10.87957 0.7905,16.53183 l 0,0 c 0.31547,0.4615 0.64884,0.9093 1.01896,1.33424 l 0,0 c -1.1926,-4.69727 0.10052,-9.75551 1.98309,-13.53435 l 0,0 c 3.00205,-6.04979 7.2104,-8.93761 11.35935,-11.55126 l 0,0 c 1.78661,-1.1332 2.57253,-2.22526 1.51245,-5.17248 l 0,0 c -0.29719,-0.83619 -0.46607,-2.34864 -0.79963,-3.69202 l 0,0 c 0.10527,1.3114 -0.53462,2.44459 -1.70436,3.03403" id="path510" style="fill:url(#linearGradient9464);stroke:none"/>
    <path d="m 309.60394,488.9062 c -14.631,5.46492 -21.04176,17.07102 -17.95747,24.82517 l 0,0 c 0.59858,1.48046 1.54901,2.62279 2.76902,3.44527 l 0,0 c -1.03267,-7.16014 4.32715,-18.87133 18.39612,-23.51834 l 0,0 c 18.40068,-6.06806 38.91697,-2.2344 55.41225,1.29312 l 0,0 c 2.30751,-1.4439 4.32258,-2.43545 6.3468,-3.54123 l 0,0 c 1.00068,-0.52547 -0.13233,-1.15147 -0.43866,-1.15147 l 0,0 c -13.20079,-2.48114 -26.73057,-5.41465 -40.14155,-5.41465 l 0,0 c -8.20652,-0.004 -16.36277,1.09207 -24.38651,4.06213" id="path538" style="fill:url(#linearGradient9469);stroke:none"/>
    <path d="m 370.91062,532.4382 c -6.63009,0.38382 -16.96591,1.37994 -23.96613,2.25725 l 0,0 c -1.69065,0.21019 -1.94196,0.52547 -2.2938,1.11492 l 0,0 c -11.1583,18.40525 -23.07968,38.25442 -36.16167,51.5466 l 0,0 c -14.03698,14.25173 -25.70248,17.99858 -38.08993,18.09454 l 0,0 c -14.302,0.10053 -27.02758,-8.01003 -30.23525,-22.24349 l 0,0 c 1.71807,7.94606 6.84943,17.53251 12.77128,21.70431 l 0,0 c 6.02694,4.25404 11.96707,5.66597 18.90331,5.78934 l 0,0 c 14.08267,0.24674 26.94533,-5.56544 40.57564,-19.41508 l 0,0 c 13.09113,-13.28761 24.42764,-31.84822 35.59965,-50.24891 l 0,0 c 0.37925,-0.65342 0.76764,-0.94128 2.64107,-1.18346 l 0,0 c 7.00935,-0.86817 13.29675,-1.2657 19.48819,-1.85058 l 0,0 c 1.84601,-0.17363 3.25336,-0.33813 3.92505,0.32899 l 0,0 c 2.23897,2.23898 4.83435,4.28147 6.55699,5.28215 l 0,0 c 1.1469,0.0146 2.10646,0.26502 2.77815,0.87274 l 0,0 c 0.71738,-0.10528 1.38451,-0.50262 1.81402,-0.91386 l 0,0 c 0.79964,-0.78593 0.83619,-1.70893 0.69911,-2.49029 l 0,0 c -0.27416,-1.53072 -0.6854,-4.54648 -1.17889,-5.41465 l 0,0 c 0.33375,0.66255 0.12319,1.6084 -0.54375,2.36234 l 0,0 c -0.49348,0.55746 -1.26113,1.0875 -2.23897,1.06922 l 0,0 c -0.79506,-0.0183 -1.27941,-0.28805 -2.28923,-0.84075 l 0,0 c -2.07905,-1.11949 -4.66986,-2.97464 -6.39706,-5.14964 l 0,0 c -0.45237,-0.56203 -0.73566,-0.70367 -1.50331,-0.70367 l 0,0 c -0.23285,0 -0.51634,0.0146 -0.85447,0.0329" id="path566" style="fill:url(#linearGradient9474);stroke:none"/>
    <path d="m 310.4584,543.57366 c -1.54443,1.12405 -3.7697,0.96869 -4.73839,-0.51634 l 0,0 c -0.32461,-0.50262 -0.48435,-1.05094 -0.49806,-1.60383 l 0,0 c -0.13708,2.38519 0.81334,5.88986 1.59013,7.07332 l 0,0 c 0.85446,1.29769 3.23508,1.93739 5.13135,0.53918 l 0,0 c 4.26319,-3.14827 8.1197,-4.98057 12.43315,-5.79848 l 0,0 c 1.11491,-1.51702 2.32122,-3.19853 3.68745,-5.08566 l 0,0 c 0.11405,-0.15061 0.14146,-0.35202 0.0914,-0.4478 l 0,0 c -0.0779,-0.16888 -0.2058,-0.21457 -0.48435,-0.23285 l 0,0 c -6.32852,0.17363 -11.84827,2.06534 -17.21266,6.07264" id="path594" style="fill:url(#linearGradient9479);stroke:none"/>
    <path d="m 488.38351,484.96744 c 0.0914,0.13233 0.17363,0.27416 0.25588,0.42038 l 0,0 c -0.0822,-0.16011 -0.1645,-0.31072 -0.25588,-0.42038 z" id="path622" style="fill:url(#linearGradient9484);stroke:none"/>
    <path d="m 489.0552,487.69533 c -0.23286,4.07584 -3.39045,8.0009 -11.16744,12.2458 l 0,0 c -8.84166,4.84806 -18.09912,6.31938 -27.76325,6.39706 l 0,0 c -23.37668,0.19667 -45.14954,-8.91476 -67.6809,-13.80851 l 0,0 c 0.0329,0.98241 0.28769,2.16586 -0.53918,2.78272 l 0,0 c -12.47884,9.2072 -23.76051,18.55148 -31.31361,31.68373 l 0,0 c -0.25588,0.30158 -0.1188,0.59401 0.3246,0.56203 l 0,0 c 1.99223,-0.10053 3.91592,-0.19191 5.81676,-0.29244 l 0,0 c 6.88598,-10.76991 14.24717,-16.95678 25.49686,-25.26382 l 0,0 c 0.83618,-0.626 1.68151,-1.07836 1.40278,-3.47269 l 0,0 c 22.59533,5.01255 39.78515,13.32873 68.96488,13.41098 l 0,0 c 8.70457,0.0219 20.98693,-2.87868 27.58961,-6.86313 l 0,0 c 7.5988,-4.56476 9.61844,-7.91865 9.8926,-11.47359 l 0,0 c 0.087,-1.10578 -0.20105,-2.75073 -0.38839,-3.6052 l 0,0 c -0.2515,-1.20173 -0.42495,-2.73246 -0.77222,-3.87022 l 0,0 c 0.12319,0.47064 0.17802,0.99611 0.13708,1.56728" id="path650" style="fill:url(#linearGradient9489);stroke:none"/>
    <path d="m 380.25033,515.16614 c -0.2833,0.26977 -0.59401,0.53918 -0.90015,0.81791 l 0,0 c -2.23441,2.31208 -2.91524,5.36896 -2.58625,7.68104 l 0,0 c 0.17839,0.94128 0.54832,1.12862 0.97784,1.04637 l 0,0 c 0.41581,-0.0866 0.84533,-0.23285 1.28398,-0.40667 l 0,0 c 0.1645,-1.27484 0.69454,-2.50856 1.98309,-3.64632 l 0,0 c 0.93214,-0.82248 2.09732,-1.21087 3.09801,-1.03724 l 0,0 c 0.85903,-1.7135 1.11034,-3.76056 0.0596,-4.66528 l 0,0 c -0.45693,-0.39296 -1.0281,-0.58031 -1.64039,-0.58031 l 0,0 c -0.74937,0 -1.56271,0.27891 -2.27552,0.7905" id="path678" style="fill:url(#linearGradient9494);stroke:none"/>
    <path d="m 389.23363,523.16246 c -2.14301,4.10326 -5.6751,6.29197 -9.07011,7.35662 l 0,0 c 0,0 -0.70825,0.16011 -0.60773,0.8042 l 0,0 c 0.087,0.73567 2.49486,2.26182 3.9936,3.32191 l 0,0 c 0.21933,-0.0548 0.53918,-0.18278 0.53918,-0.18278 l 0,0 c 1.74548,-0.68083 4.64701,-2.44459 6.32852,-6.12747 l 0,0 c 1.07379,-2.36691 1.65867,-4.22663 1.1926,-8.28419 l 0,0 c -0.33375,-2.84212 -0.9093,-5.41009 -1.66781,-6.73519 l 0,0 c 1.45762,2.97463 0.87274,6.79916 -0.70825,9.8469" id="path706" style="fill:url(#linearGradient9499);stroke:none"/>
    <path d="m 326.82574,504.00327 c 0.43408,1.0418 0.43408,2.58167 -0.3884,4.51906 l 0,0 c -6.1823,14.53961 -17.99858,26.06802 -32.3874,26.55237 l 0,0 c -8.67259,0.2833 -15.17017,-4.15809 -18.20878,-10.72421 l 0,0 c 2.22527,4.89832 6.78546,9.27117 10.77448,11.77516 l 0,0 c 3.12542,1.9511 6.96366,3.02489 11.36392,2.87868 l 0,0 c 14.99654,-0.51177 26.34675,-12.8581 30.11645,-23.29901 l 0,0 c 1.00525,-2.81928 0.22372,-5.83047 -0.24674,-7.87296 l 0,0 c -0.19191,-0.78592 -0.4478,-2.55882 -1.01439,-3.82909 l 0,0 -0.007,0 z" id="path734" style="fill:url(#linearGradient9504);stroke:none"/>
    <path d="m 688.92131,538.39569 c 0.10527,0.51634 0.18716,1.03724 0.27416,1.55357 -0.0779,-0.5209 -0.17803,-1.03723 -0.27416,-1.55357 m -566.19928,9.42653 c -0.0596,-12.50169 5.45121,-24.93483 17.03446,-36.61861 40.79497,-41.15137 147.68072,-68.96031 265.47802,-69.4538 156.04716,-0.64427 283.21159,45.8852 283.48118,103.72377 0.0548,12.50169 -5.79391,24.76577 -17.37716,36.45411 -40.79954,41.15138 -147.35173,69.12938 -265.13989,69.6183 C 250.15148,652.19026 122.98705,605.66535 122.72203,547.82222 M 405.71429,439.79871 c -158.16733,0 -284.9525,47.41136 -284.9525,106.84919 0,59.07686 127.83155,106.84919 284.9525,106.84919 157.12095,0 284.9525,-47.93226 284.9525,-106.84919 0,-58.91693 -127.83155,-106.84919 -284.9525,-106.84919" id="path746" style="fill:#58595b;fill-opacity:1;fill-rule:nonzero;stroke:none"/>
    <path d="m 121.62631,546.64424 c 0,2.79186 0.3246,5.55631 0.89559,8.29334 l 0,0 c -0.43409,-2.34864 -0.68083,-4.72012 -0.68997,-7.10988 l 0,0 c -0.0592,-12.67075 5.61113,-25.46487 17.29491,-37.25374 l 0,0 c 41.01886,-41.37984 148.01427,-69.22077 266.10401,-69.70968 l 0,0 c 16.36277,-0.0731 32.39655,0.38839 48.01451,1.32053 l 0,0 c -15.4626,-0.97783 -31.33645,-1.49417 -47.53473,-1.49417 l 0,0 c -157.52305,0 -284.08432,47.23316 -284.08432,105.9536" id="path774" style="fill:url(#linearGradient9509);stroke:none"/>
    <path d="m 689.60305,545.49277 c 0.0592,12.67075 -5.9447,25.30038 -17.63304,37.08925 l 0,0 c -40.87722,41.23362 -147.83607,69.36241 -265.76589,69.85133 l 0,0 c -16.67805,0.064 -33.03168,-0.37925 -48.92837,-1.34338 l 0,0 c 15.74133,1.01439 31.93047,1.51702 48.43488,1.51702 l 0,0 c 156.64117,0 284.07062,-47.81346 284.07062,-105.93076 l 0,0 c 0,-2.21612 -0.20543,-4.42311 -0.57116,-6.60725 l 0,0 c 0.25588,1.79575 0.38382,3.6052 0.39296,5.42379" id="path802" style="fill:url(#linearGradient9514);stroke:none"/>
    <path d="m 136.80562,546.6214 c 0,51.68368 120.38354,93.57986 268.89131,93.57986 l 0,0 c 148.49405,0 268.87303,-41.89618 268.87303,-93.57986 l 0,0 c 0,-51.69282 -120.37898,-93.58443 -268.87303,-93.58443 l 0,0 c -148.50777,0 -268.89131,41.89161 -268.89131,93.58443 m 9.45394,0 c 0,-47.21945 116.14778,-85.48301 259.43737,-85.48301 l 0,0 c 143.28959,0 259.42365,38.26356 259.42365,85.48301 l 0,0 c 0,47.21944 -116.13406,85.48301 -259.42365,85.48301 l 0,0 c -143.28959,0 -259.43737,-38.26357 -259.43737,-85.48301" id="path832" style="fill:url(#linearGradient9519);stroke:none"/>
    <path d="m 557.87386,514.87827 c -1.06922,0 -1.61754,0.13233 -2.12017,1.12405 l 0,0 c -1.64952,3.16198 -21.77285,33.31955 -25.5197,39.17743 l 0,0 c -0.63057,0.89102 -1.40278,0.76765 -1.4896,-0.24674 l 0,0 c -0.37926,-3.48183 -3.38587,-7.47542 -8.1197,-9.38997 l 0,0 c -3.6052,-1.46676 -7.13272,-1.73178 -10.79732,-1.24743 l 0,0 c -6.61639,0.89559 -12.5154,4.38656 -17.70158,8.32075 l 0,0 c -7.81356,5.94469 -14.55332,13.63944 -23.25789,19.33283 l 0,0 c -4.7521,3.098 -11.25883,5.79848 -15.60883,1.76376 l 0,0 c -3.94333,-3.65089 -3.49553,-11.76602 2.53141,-18.03971 l 0,0 c 0.63514,-0.65798 1.39822,-0.10967 1.27941,0.48435 l 0,0 c -0.56659,2.83755 0.12794,5.65683 2.2801,7.63535 l 0,0 c 2.63193,2.35777 6.39249,2.62736 9.61387,1.05551 l 0,0 c 3.80168,-1.88713 6.03608,-5.52432 6.68949,-9.65042 l 0,0 c 1.00526,-6.4062 -3.92505,-12.05389 -10.09364,-12.50626 l 0,0 c -5.00799,-0.35202 -9.81035,1.39365 -14.49392,5.2593 l 0,0 c -2.34406,1.94197 -3.68287,3.38131 -5.71166,6.26912 l 0,0 c -0.49348,0.71282 -1.25199,0.78593 -1.23372,-0.26502 l 0,0 c 0.242,-8.19738 -3.15283,-12.8124 -9.93372,-12.96319 l 0,0 c -5.25929,-0.12318 -10.87957,2.72789 -15.26156,6.22343 l 0,0 c -4.80236,3.85651 -9.00157,8.96502 -13.50236,13.77196 l 0,0 c -0.55746,0.58944 -1.04638,0.56203 -1.20174,-0.58488 l 0,0 c -0.13708,-5.43293 -1.50331,-10.69223 -4.02101,-14.42994 l 0,0 c -0.88645,-1.30226 -2.7553,-1.94196 -4.32715,-1.06465 l 0,0 c -0.73109,0.39753 -3.25793,1.56271 -5.0948,3.04317 l 0,0 c -0.91387,0.74937 -1.27028,1.83687 -0.86818,3.23509 l 0,0 c 2.43089,8.11513 1.89628,17.33603 -1.39821,25.13588 l 0,0 c -3.0249,7.13272 -8.89648,13.5709 -15.80074,15.75047 l 0,0 c -4.55105,1.44391 -9.28031,0.73567 -12.20468,-3.29448 l 0,0 c -4.02101,-5.57458 -2.3989,-15.24785 3.58693,-23.28987 l 0,0 c 5.29128,-7.07332 12.94034,-11.56954 20.56655,-14.4665 l 0,0 c 0.90015,-0.34727 1.08293,-0.923 0.82704,-1.68608 l 0,0 c -0.4158,-1.25657 -1.07379,-2.96093 -1.34338,-3.74228 l 0,0 c -0.69911,-1.85972 -2.65935,-2.16129 -5.04911,-1.90541 l 0,0 c -5.54259,0.64884 -10.54601,2.54511 -15.48545,5.19076 l 0,0 c -12.92664,6.9271 -19.41508,20.33351 -22.25721,27.50279 l 0,0 c -1.36622,3.4407 -2.54054,5.59286 -4.04842,7.49827 l 0,0 c -2.03792,2.56339 -4.59675,4.89832 -9.28031,9.00614 l 0,0 c -0.42038,0.37926 -0.73566,1.16061 -0.38382,1.89171 l 0,0 c 0.47978,0.99154 2.91523,4.42311 3.60063,4.73382 l 0,0 c 0.76308,0.37469 1.64496,-0.15097 2.00137,-0.4021 l 0,0 c 3.27163,-2.22069 7.19212,-5.73908 9.10667,-8.12884 l 0,0 c 0.67626,-0.81334 1.36623,-0.46607 1.71807,0.77222 l 0,0 c 1.79574,6.38335 6.4793,11.59696 12.95861,13.77196 l 0,0 c 11.85741,3.99816 24.16262,-1.79118 33.44292,-11.86655 l 0,0 c 5.90358,-6.40163 8.03288,-10.52316 10.29013,-13.32416 l 0,0 c 3.83367,-4.74754 11.39591,-15.37123 20.39749,-22.19323 l 0,0 c 3.30362,-2.51313 7.21497,-4.43225 9.17978,-3.15741 l 0,0 c 1.57185,1.01896 2.08361,3.39501 -0.44323,7.99633 l 0,0 c -9.18435,16.76486 -22.69585,36.46324 -25.16786,41.24276 l 0,0 c -0.45236,0.82705 -0.0596,1.48046 0.80877,1.48046 l 0,0 c 4.80237,-0.0219 9.56361,-0.007 13.92732,-0.007 l 0,0 c 0.72652,-0.0366 1.05094,-0.37011 1.41649,-0.87731 l 0,0 c 7.0459,-11.03036 13.676,-21.53525 20.78131,-32.3874 l 0,0 c 0.4021,-0.63514 0.76764,-0.13708 0.78135,0.13708 l 0,0 c 0.14622,2.52227 0.76765,5.96297 2.26182,8.22479 l 0,0 c 2.6822,4.18093 6.49302,5.98125 10.71508,6.0041 l 0,0 c 3.35845,0.0413 5.05824,-0.47064 8.68172,-1.82317 l 0,0 c 2.94722,-1.09207 5.31413,-2.52683 7.13272,-3.82909 l 0,0 c 1.06009,-0.73567 1.24743,0.49805 1.22002,0.68997 l 0,0 c -1.63126,8.75483 0.37925,19.13178 9.08382,23.43152 l 0,0 c 10.41807,5.13592 21.8551,-2.08362 28.43951,-8.59491 l 0,0 c 0.64427,-0.63514 1.33424,-0.5666 1.39821,0.78592 l 0,0 c 0.14183,2.49029 1.2657,5.44207 3.3219,7.50284 l 0,0 c 5.51975,5.5426 16.65064,3.34475 27.82265,-5.30042 l 0,0 c 7.16927,-5.53803 14.67668,-13.36072 21.45757,-21.64491 l 0,0 c 0.25149,-0.31986 0.43865,-0.83619 -0.0457,-1.35253 l 0,0 c -1.03267,-1.08293 -2.52684,-2.31664 -3.55037,-3.27163 l 0,0 c -0.46607,-0.39297 -1.1469,-0.27892 -1.54443,0.0183 l 0,0 c -6.94995,6.60725 -13.20536,14.14665 -22.24806,20.37921 l 0,0 c -3.04774,2.12017 -7.90494,3.84281 -10.08908,0.88645 l 0,0 c -0.8499,-1.14233 -0.75394,-2.73246 0.0823,-4.8115 l 0,0 c 2.6365,-6.57984 44.37275,-70.11636 46.53861,-73.85864 l 0,0 c 0.37012,-0.65798 -0.0219,-1.13319 -0.84532,-1.13319 l 0,0 c -4.2906,0 -9.92458,0.011 -14.39796,0.011 m -66.14561,78.08527 c -2.14758,-1.11035 -3.07515,-4.11697 -3.02946,-6.55242 l 0,0 c 0.10966,-6.83115 3.13913,-13.85877 8.7594,-20.75389 l 0,0 c 6.84943,-8.43041 14.42081,-12.80783 19.38767,-10.41807 l 0,0 c 5.14049,2.4583 3.5001,8.40756 1.19716,13.07742 l 0,0 c -0.16925,0.36554 -0.18277,0.67169 -0.0914,0.96413 l 0,0 c 0.087,0.48891 0.72196,0.95956 1.34339,1.18345 l 0,0 c 0.21494,0.0823 0.33813,0.23761 0.0914,0.74937 l 0,0 c -1.7729,3.80168 -3.40872,5.99496 -5.63398,9.29859 l 0,0 c -2.04249,3.05688 -4.34543,5.4375 -7.13729,7.72673 l 0,0 c -3.24423,2.68677 -7.47085,5.56088 -11.44617,5.56088 l 0,0 c -1.17889,0 -2.33493,-0.2515 -3.44071,-0.83619" id="path862" style="fill:url(#linearGradient9524);stroke:none"/>
    <path d="m 324.02931,476.8249 c -25.64765,2.16129 -50.057,16.5958 -50.1027,38.51944 l 0,0 c -0.0219,11.11718 7.87753,20.12789 20.12333,19.73036 l 0,0 c 14.38882,-0.48435 26.2051,-12.01276 32.3874,-26.55237 l 0,0 c 2.34864,-5.51518 -2.00136,-7.80441 -4.0667,-4.62873 l 0,0 c -3.69202,5.7208 -8.89648,10.16219 -14.52133,12.91749 l 0,0 c -6.77174,3.31277 -14.00956,2.42175 -16.20284,-3.07972 l 0,0 c -3.08429,-7.75415 3.32647,-19.36025 17.95747,-24.82517 l 0,0 c 21.13771,-7.82269 43.25327,-2.64564 64.52806,1.35252 l 0,0 c 0.30633,0 1.43934,0.626 0.43866,1.15147 l 0,0 c -3.81539,2.07448 -7.56224,3.76513 -13.40641,8.79596 l 0,0 c -4.19008,3.58693 -9.67784,8.36644 -13.92275,13.57091 l 0,0 c -4.20835,5.12679 -7.19669,9.70526 -11.14916,14.77264 l 0,0 c -0.54375,0.73566 -1.22458,0.69911 -1.21544,0.69911 l 0,0 c -9.62758,1.62668 -19.05411,2.71418 -27.681,8.71371 l 0,0 c -1.78661,1.23372 -2.56339,3.41786 -1.47589,5.0948 l 0,0 c 0.96869,1.48503 3.19396,1.64039 4.73839,0.51634 l 0,0 c 5.36439,-4.00731 10.88414,-5.89901 17.21266,-6.07264 l 0,0 c 0.27892,0.0183 0.40667,0.064 0.48435,0.23285 l 0,0 c 0.0501,0.0961 0.0219,0.29719 -0.0914,0.44779 l 0,0 c -9.48593,13.15053 -11.85741,16.12517 -18.99014,24.28142 l 0,0 c -3.64632,4.19007 -7.23781,7.7313 -11.24512,11.40961 l 0,0 c -16.19827,15.0468 -33.61655,14.79092 -39.86739,5.35069 l 0,0 c -3.73314,-5.65226 -3.23966,-11.60153 -0.7905,-16.53183 l 0,0 c 3.00662,-6.04066 9.10211,-10.46377 14.16036,-13.05001 l 0,0 c 1.88256,-0.95956 2.42174,-3.36302 0.54375,-5.55173 l 0,0 c -1.20174,-1.4302 -4.09869,-1.68609 -6.25999,-1.28398 l 0,0 c -6.63466,1.22458 -14.47563,6.23713 -19.10436,12.26864 l 0,0 c -5.21817,6.77632 -7.82726,15.00111 -6.95452,24.22202 l 0,0 c 1.57642,16.65063 15.27984,26.26907 30.84297,26.15484 l 0,0 c 12.38745,-0.0961 24.05295,-3.84281 38.08993,-18.09455 l 0,0 c 13.08199,-13.29217 25.00337,-33.14134 36.16167,-51.5466 l 0,0 c 0.35166,-0.58944 0.60315,-0.90472 2.2938,-1.11491 l 0,0 c 7.00022,-0.87731 17.33604,-1.87343 23.96613,-2.25725 l 0,0 c 1.47133,-0.0779 1.76833,-0.064 2.35778,0.67169 l 0,0 c 1.7272,2.175 4.31801,4.03015 6.39706,5.14963 l 0,0 c 1.00982,0.55289 1.49417,0.82248 2.28923,0.84076 l 0,0 c 0.97784,0.0183 1.74549,-0.51177 2.23897,-1.06922 l 0,0 c 0.70368,-0.77222 0.89559,-1.77747 0.51634,-2.42632 l 0,0 c -0.39753,-0.6854 -5.02169,-3.24422 -5.15421,-4.28146 l 0,0 c -0.10052,-0.64427 0.60773,-0.8042 0.60773,-0.8042 l 0,0 c 3.39501,-1.06465 6.9271,-3.25336 9.07011,-7.35662 l 0,0 c 2.1019,-4.03929 2.44459,-9.42196 -1.40735,-12.42401 l 0,0 c -3.37216,-2.63193 -8.4761,-2.21612 -12.55195,1.43934 l 0,0 c -3.98445,3.55037 -5.30042,8.70914 -4.76124,13.23735 l 0,0 c 0.0914,0.78135 0.0505,1.04638 -1.01439,1.13776 l 0,0 c -6.12747,0.48435 -12.02647,0.65799 -18.58346,1.00525 l 0,0 c -0.44322,0.0329 -0.5803,-0.26026 -0.3246,-0.56202 l 0,0 c 7.5531,-13.13226 18.83477,-22.47653 31.31361,-31.68373 l 0,0 c 0.82705,-0.61686 0.57116,-1.80032 0.53918,-2.78272 l 0,0 c 22.53136,4.89375 44.30421,14.00499 67.6809,13.80851 l 0,0 c 9.66413,-0.0779 18.92159,-1.549 27.76324,-6.39706 l 0,0 c 7.777,-4.24491 10.93441,-8.16996 11.16744,-12.2458 l 0,0 c 0.17839,-2.82385 -1.77746,-4.60132 -4.56932,-3.99817 l 0,0 c -23.61887,5.42837 -46.14566,5.36897 -69.64115,2.52684 l 0,0 c -26.67117,-3.23965 -52.26855,-9.87889 -78.79808,-9.87889 l 0,0 c -3.98445,0 -7.98719,0.14622 -12.01733,0.47978 m 52.73462,46.8402 c -0.34251,-2.49943 0.47064,-5.84875 3.13913,-8.20652 l 0,0 c 1.34338,-1.18802 3.15284,-1.45762 4.26319,-0.50263 l 0,0 c 1.24742,1.06466 0.65798,3.71487 -0.59859,5.55631 l 0,0 c -1.37537,2.02421 -3.70115,3.77426 -5.82589,4.19921 l 0,0 c -0.0596,0.011 -0.1188,0.0146 -0.17364,0.0146 l 0,0 c -0.3564,0 -0.64884,-0.24674 -0.8042,-1.06008" id="path892" style="fill:url(#linearGradient9529);stroke:none"/>
  </g>
</svg>