<svg id="Layer_2" data-name="Layer 2" xmlns="http://www.w3.org/2000/svg" viewBox="0 0 454.57 402.42"><path d="M285,376.14h34.43a.1.1,0,0,0,.1-.09v-11a.1.1,0,0,0-.1-.1H285a.09.09,0,0,1-.1-.08V352.49a.1.1,0,0,1,.08-.1h38a.08.08,0,0,0,.1-.08V340.49a.09.09,0,0,0-.08-.1H271.26a.09.09,0,0,0-.09.09h0v60.76a.11.11,0,0,0,.09.1h51.92a.1.1,0,0,0,.1-.1v-11.8a.1.1,0,0,0-.1-.1H285a.09.09,0,0,1-.1-.08h0v-13a.11.11,0,0,1,.07-.13Z" transform="translate(-1.7 -0.1)"/><path d="M191.37,342.37c-3.38-1.4-7.76-2-13.34-2H143.5a.1.1,0,0,0-.1.1v60.76a.12.12,0,0,0,.1.1h13.74a.1.1,0,0,0,.1-.1V382.64a.1.1,0,0,1,.08-.1H178c8,0,13.94-1.6,17.92-5,4-3.2,6-8.59,6-16,0-5.39-.8-9.59-2.59-12.59A13.77,13.77,0,0,0,191.37,342.37Zm-5.57,26.18c-1.8,1.6-4.58,2.2-8.56,2.2H157.43a.11.11,0,0,1-.09-.1V352.06a.11.11,0,0,1,.09-.1h19.81c3,0,5.17.2,6.76,1a7.22,7.22,0,0,1,3.39,3,13.21,13.21,0,0,1,1,5.19C188.38,364.75,187.39,367.15,185.8,368.55Z" transform="translate(-1.7 -0.1)"/><path d="M56.83,342.77c-5.17-2.4-11.94-3.6-19.9-3.6-8.16,0-14.73,1.2-19.9,3.6A23,23,0,0,0,5.48,353.36C2.9,358,1.7,363.75,1.7,370.75c0,7.19,1.2,13,3.78,17.58A24,24,0,0,0,17,398.93c5.17,2.4,11.74,3.59,19.9,3.59s14.73-1.19,19.9-3.59a24.32,24.32,0,0,0,11.74-10.6c2.59-4.59,3.78-10.39,3.78-17.58,0-7-1.19-12.79-3.78-17.39A23.32,23.32,0,0,0,56.83,342.77Zm-1,39A11.78,11.78,0,0,1,49.26,388c-3,1.4-7.17,2.2-12.34,2.2a34.14,34.14,0,0,1-12.34-2h0A13.66,13.66,0,0,1,18,381.77,27.71,27.71,0,0,1,16,371a28.75,28.75,0,0,1,2-11,11.89,11.89,0,0,1,6.57-6.2c3-1.4,7-2.2,12.34-2.2a34.23,34.23,0,0,1,12.53,2h0a12.51,12.51,0,0,1,6.37,6.4,27.35,27.35,0,0,1,2,10.79,27.86,27.86,0,0,1-2,11Z" transform="translate(-1.7 -0.1)"/><path d="M419.45,388.84V340.49a.09.09,0,0,0-.1-.1H405.81a.1.1,0,0,0-.1.1v60.76a.12.12,0,0,0,.1.1h50.37a.11.11,0,0,0,.09-.1v-12.2a.11.11,0,0,0-.09-.1H419.55a.09.09,0,0,1-.1-.08Z" transform="translate(-1.7 -0.1)"/><path d="M454.15,166.89l-248.65-27h-.06l-68.06,35.6a.1.1,0,0,0,0,.19h300.4l16.36-8.54a.13.13,0,0,0,.13-.12.12.12,0,0,0-.12-.13Z" transform="translate(-1.7 -0.1)"/><path d="M229,10A129.94,129.94,0,0,1,358.91,139.93c0,2.2-.05,4.38-.16,6.56l10,1.08c.14-2.53.21-5.07.21-7.64A140,140,0,0,0,96.7,94.2h10.67A130,130,0,0,1,229,10Z" transform="translate(-1.7 -0.1)"/><path d="M229,269.87A129.94,129.94,0,0,1,99,139.93c0-2.21.06-4.4.17-6.59l-10-1.08q-.21,3.81-.21,7.67a140,140,0,0,0,272.28,45.7H350.6A130,130,0,0,1,229,269.87Z" transform="translate(-1.7 -0.1)"/><path d="M252.44,139.9h.05l68.07-35.5a.1.1,0,0,0,.06-.13.09.09,0,0,0-.06-.06H20.12L3.78,112.75a.1.1,0,0,0,0,.19Z" transform="translate(-1.7 -0.1)"/></svg>